<svg id="human-body-svg" width="300" height="800" xmlns="http://www.w3.org/2000/svg" pointer-events="none">
 <g id="Layer_1">
  <title>Layer 1</title>
  <g stroke="null" id="svg_1" pointer-events="auto">
   <path fill="#d3d3d3" stroke="null" id="svg_81" d="m134.66866,24.21634c-6.63861,3.04052 -11.01405,8.36143 -14.18248,16.87487c-2.71579,7.60129 -3.92281,51.23271 -1.50878,58.37793c1.96141,6.23305 14.93688,17.78702 24.89479,22.34779c5.12983,2.28038 6.48773,2.43241 10.71231,0.60811c7.84562,-3.19255 22.7825,-15.96273 25.04566,-20.97957c3.01756,-7.29725 2.41403,-47.88815 -0.75438,-58.83401c-2.56492,-9.12154 -9.20353,-16.87487 -16.59653,-19.61132c-6.63861,-2.58444 -20.67021,-1.97634 -27.61058,1.2162z"/>
   <path fill="#d3d3d3" stroke="null" id="svg_82" d="m127.12479,121.96895c1.05614,5.32091 3.01756,12.01004 4.52632,14.89854c4.67721,9.4256 13.72986,24.32413 14.63512,24.32413c0.45263,0 -2.11227,-9.4256 -5.88421,-20.97957c-5.88422,-18.39512 -10.56143,-27.66871 -14.03161,-27.66871c-0.45263,0 -0.15089,4.25673 0.75438,9.4256z"/>
   <path fill="#d3d3d3" stroke="null" id="svg_83" d="m169.37049,115.27982c-2.86667,2.43241 -18.10529,44.0875 -16.59653,45.60774c0.90527,0.91217 8.14738,-10.79383 13.88073,-22.65184c4.0737,-8.36142 8.44914,-25.84439 6.48773,-25.69237c-0.30176,0.15203 -1.96141,1.36824 -3.77194,2.73647z"/>
   <path fill="#d3d3d3" stroke="null" id="svg_84" d="m137.68622,123.48921c0.45262,1.06418 3.16842,9.88169 6.33685,19.45931l5.58248,17.48297l6.33685,-19.00323c3.47019,-10.48978 6.18598,-19.15525 6.0351,-19.45931c-0.15087,-0.15202 -2.26316,0.60811 -4.67719,1.97634c-5.58248,2.8885 -10.1088,2.8885 -15.69126,0c-3.3193,-1.67228 -4.22457,-1.82431 -3.92281,-0.45608z"/>
   <path fill="#d3d3d3" stroke="null" id="svg_85" d="m125.0125,130.4824c0,1.21621 -0.90527,4.25673 -2.11229,6.84117c-1.20702,2.73646 -2.41403,7.44926 -2.86667,10.6418c-0.75438,5.16888 -0.60351,5.47293 1.96141,4.1047c1.50876,-0.76012 4.22456,-3.49659 5.88421,-5.92901l3.16843,-4.40875l-3.01754,-6.53711c-1.65965,-3.64862 -3.01756,-5.77698 -3.01756,-4.71281z"/>
   <path fill="#d3d3d3" stroke="null" id="svg_86" d="m170.42663,136.10736c-2.11229,5.92901 -1.20702,8.51345 4.97895,14.29042l3.92281,3.64862l0,-5.62496c0,-4.56076 -4.82807,-17.63499 -6.48773,-17.63499c-0.30175,0 -1.35789,2.43241 -2.41403,5.3209z"/>
   <path fill="#d3d3d3" stroke="null" id="svg_87" d="m112.18791,140.82016c-4.07369,1.97634 -9.80704,4.10469 -12.37194,4.56078c-2.71579,0.45608 -4.52633,1.52025 -4.0737,2.28038c1.05614,1.82431 12.22108,1.67229 15.69126,-0.15203c2.26316,-1.2162 10.41054,-10.94586 8.75089,-10.48978c-0.30175,0 -3.77194,1.67229 -7.99651,3.80065z"/>
   <path fill="#d3d3d3" stroke="null" id="svg_88" d="m179.3284,137.32357c0,0.60809 2.11229,3.34456 4.67721,6.38508c4.0737,4.71279 5.58246,5.3209 11.76845,5.3209c3.92281,0 7.69475,-0.45608 8.14738,-0.91215c0.60351,-0.60811 -3.92281,-2.73646 -9.95792,-4.71281c-5.88421,-2.12835 -11.61756,-4.40875 -12.6737,-5.3209c-1.05614,-0.91215 -1.96141,-1.2162 -1.96141,-0.76012z"/>
   <path fill="#d3d3d3" stroke="null" id="svg_89" d="m126.3704,150.70184c-3.16843,3.34456 -6.33686,5.92901 -7.24213,5.92901c-0.90526,0 -1.65965,-2.43241 -1.65965,-5.47293l0,-5.3209l-3.92281,3.04052c-4.97895,3.95267 -14.03161,4.10469 -18.85969,0.45608c-3.01754,-2.28039 -4.82808,-2.58444 -10.25967,-1.36824c-8.29826,1.67229 -6.63861,3.04052 6.63861,5.62496c5.88422,1.06418 15.38951,3.64862 21.12285,5.47293c6.33686,2.12837 14.33337,3.64862 20.06671,3.64862c12.52284,0 15.38951,2.73646 15.54039,14.7465c0,4.86484 0.60351,11.55397 1.20702,14.89853c0.90527,5.01685 1.20703,3.49659 1.81054,-8.96952c0.90526,-18.39512 2.71579,-20.67551 16.44564,-20.67551c4.67721,0 12.37196,-1.36823 16.89828,-2.88849c4.67721,-1.67229 13.72986,-4.1047 20.21759,-5.47293c18.7088,-3.95268 18.85969,-4.1047 11.16493,-6.08104c-5.88422,-1.52026 -7.24212,-1.36824 -10.41054,1.06418c-4.37545,3.34456 -12.37196,3.49659 -18.25618,0.45608l-4.52632,-2.43241l0,4.71279c0,6.23307 -2.71579,5.77699 -9.80704,-1.52026l-5.73335,-5.92901l-6.18597,9.4256c-5.28072,7.90534 -6.94037,9.4256 -11.01405,9.72966c-4.37546,0.30405 -5.28072,-0.45608 -10.86319,-9.4256c-3.47018,-5.47293 -6.33685,-9.72966 -6.63861,-9.72966c-0.15087,0.15203 -2.71579,2.88849 -5.73334,6.08104z"/>
   <path fill="#d3d3d3" stroke="null" id="svg_90" d="m65.11414,156.47882c-15.38951,11.24992 -20.8211,27.97275 -17.80355,55.79349l1.05614,10.79383l4.82807,-9.12155c3.31932,-6.68913 6.78949,-10.64181 12.22108,-14.44245c5.43159,-3.64862 7.69475,-6.23305 7.84564,-8.96952c0.60351,-8.51345 18.10529,-20.82754 35.45621,-25.38831l7.84564,-1.97634l-7.393,-2.43241c-5.73335,-1.97634 -35.15446,-8.66548 -37.71938,-8.66548c-0.15087,0 -3.01754,1.97634 -6.33685,4.40875z"/>
   <path fill="#d3d3d3" stroke="null" id="svg_91" d="m212.21969,155.11059c-7.09124,1.67229 -16.89828,4.1047 -21.87723,5.47293l-8.75089,2.58444l7.54388,1.82431c18.40705,4.25673 38.02113,18.09108 36.66322,25.84439c-0.60351,2.58444 0.45263,3.95268 4.37545,6.08104c6.78949,3.80065 14.786,12.77018 17.20004,19.61134c1.05614,3.04052 2.41405,5.47293 3.01756,5.47293c0.45262,0 1.50876,-6.08104 1.9614,-13.37827c1.3579,-16.26677 -1.65965,-32.98961 -7.39299,-41.65508c-3.31932,-5.16887 -16.29477,-15.20258 -18.70882,-14.7465c-0.60351,0.15203 -6.78948,1.36823 -14.03161,2.88849z"/>
   <path fill="#d3d3d3" stroke="null" id="svg_92" d="m118.52477,165.90442c-6.94037,0.76014 -14.18248,3.04052 -21.87723,6.68914c-11.16494,5.3209 -21.42461,13.22625 -21.42461,16.57082c0,0.91215 1.96141,5.77698 4.37545,10.79383c2.41405,5.01685 5.88422,13.98638 7.54388,19.91538c1.96141,6.68914 4.67721,12.16207 7.09124,14.44245c3.62106,3.34458 4.97895,3.64862 20.67021,3.64862c25.34742,-0.15203 32.58955,-4.86482 32.74042,-21.43564c0,-13.22625 -3.01756,-48.34421 -4.22457,-49.4084c-1.96141,-1.82431 -14.63512,-2.43241 -24.89479,-1.21621z"/>
   <path fill="#d3d3d3" stroke="null" id="svg_93" d="m162.27924,165.44834c-4.22457,0.30406 -6.0351,1.36824 -7.09124,3.80065c-2.11229,5.62495 -4.82808,51.68878 -3.16843,56.09752c3.16843,8.51345 15.23863,13.37828 33.04217,13.37828c18.85969,0 23.53688,-3.80065 28.21409,-22.65185c1.3579,-5.47293 4.0737,-13.07422 6.18598,-16.72285c4.82807,-8.81749 4.67719,-12.77016 -1.05614,-17.63499c-13.4281,-11.24992 -36.2106,-17.93905 -56.12643,-16.26677z"/>
   <path fill="#d3d3d3" stroke="null" id="svg_94" d="m68.13168,200.41428c-10.41054,6.99319 -13.27721,12.16207 -22.48074,41.65508c-4.22457,13.22624 -4.22457,13.37827 -1.65966,21.43564c2.26317,7.29724 7.54388,14.7465 9.20353,13.07422c0.30176,-0.30406 2.41405,-9.57763 4.67721,-20.37146c2.71579,-13.07422 6.63861,-25.99642 11.61757,-38.46254c4.52632,-11.24992 7.09124,-19.30729 6.33685,-20.06741c-0.90526,-0.91215 -3.92281,0.30405 -7.69475,2.73646z"/>
   <path fill="#d3d3d3" stroke="null" id="svg_95" d="m222.63024,198.1339c-0.30175,0.91215 0.60352,4.25672 1.96141,7.14522c6.18597,12.61813 13.4281,33.5977 15.69126,45.60774c3.47018,18.09108 5.58246,25.84439 7.09124,25.84439c2.26316,0 6.33686,-7.60128 8.29826,-15.20258c1.81054,-7.14522 1.65965,-8.36142 -4.22456,-26.14845c-3.31932,-10.33775 -6.94037,-20.37146 -7.99651,-22.49982c-4.0737,-7.90534 -19.31232,-18.8512 -20.8211,-14.7465z"/>
   <path fill="#d3d3d3" stroke="null" id="svg_96" d="m73.71415,213.79255c-2.71579,6.68914 -5.88421,14.74651 -7.09124,18.09108c-2.41403,6.68914 -11.01405,45.3037 -10.25967,46.06383c0.30176,0.30405 1.81054,-0.15203 3.47019,-1.06418c5.58246,-3.04052 12.0702,-16.11474 14.78599,-29.34098c1.3579,-6.99319 2.71579,-12.77018 2.86667,-13.07422c0.30176,-0.30405 2.71579,4.40875 5.43159,10.33775c6.33686,13.98638 11.31581,18.24311 20.97198,18.24311c7.99651,0 11.01405,-2.43241 10.25967,-7.90534c-0.45263,-3.19255 -1.20702,-3.49659 -10.71231,-3.64862c-9.05264,0 -10.56142,-0.60811 -14.78599,-4.56078c-8.14738,-7.75331 -9.20353,-11.55397 -8.14738,-27.0606c1.20702,-19.15525 -0.60351,-20.82754 -6.78949,-6.08104z"/>
   <path fill="#d3d3d3" stroke="null" id="svg_97" d="m218.70743,206.19127c-1.35789,3.19253 -1.35789,6.68913 -0.15087,15.20258c1.9614,12.77018 0,19.00323 -7.84564,25.69237c-4.67719,3.95267 -6.63861,4.40875 -18.10529,3.80064c-5.88422,-0.15203 -7.09124,0.15203 -7.99651,3.04052c-1.65965,5.3209 3.01756,9.12155 11.31581,9.12155c9.65616,0 13.4281,-3.34456 19.76496,-17.33094c5.43159,-12.16207 7.39299,-14.13841 7.39299,-7.60129c0,2.12835 1.05614,8.66546 2.41405,14.29042c2.71579,11.24992 11.31581,24.62819 16.29477,25.54034c1.65965,0.45608 2.41403,0 1.81053,-1.06418c-0.60351,-0.91215 -2.71579,-9.88168 -4.67721,-19.91538c-3.3193,-15.96271 -8.29826,-31.46935 -16.14388,-49.86447l-2.11229,-5.01685l-1.96141,4.1047z"/>
   <path fill="#d3d3d3" stroke="null" id="svg_98" d="m42.18075,216.68106c-1.9614,6.68913 -4.22457,34.20581 -2.71579,34.20581c0.60351,0 2.41405,-4.71279 4.22457,-10.64181c2.56492,-8.81749 2.86667,-12.16206 1.81053,-20.0674l-1.35789,-9.57763l-1.96141,6.08104z"/>
   <path fill="#d3d3d3" stroke="null" id="svg_99" d="m254.31452,215.92092c-1.96141,6.99319 -1.05614,17.635 2.11229,27.0606c1.65965,5.16888 3.47018,9.4256 3.77194,9.4256c1.20702,0 -1.3579,-27.97275 -3.16843,-34.20581c-1.50878,-5.62496 -1.81053,-5.77699 -2.71579,-2.28039z"/>
   <path fill="#d3d3d3" stroke="null" id="svg_100" d="m82.91768,227.93096c-0.15087,9.27358 0.15089,9.88168 5.73335,15.50664c4.52632,4.56078 6.94037,5.92901 10.86318,5.92901c6.78949,0 14.93688,-2.43241 19.01056,-5.77698c3.3193,-2.58444 3.16843,-2.58444 -7.54388,-2.73647c-16.29477,-0.15202 -20.21758,-2.88849 -26.55444,-19.00323c-1.20702,-2.88849 -1.50878,-1.67228 -1.50878,6.08104z"/>
   <path fill="#d3d3d3" stroke="null" id="svg_101" d="m213.27584,224.89044c-1.81053,8.2094 -7.393,13.37827 -16.89828,15.35461c-4.52632,1.06418 -10.71231,1.52026 -13.57897,1.21621l-5.43159,-0.60811l3.47018,2.73647c6.0351,5.01685 17.65267,6.99319 24.74391,4.40875c8.14738,-3.19255 14.33336,-19.00323 10.1088,-25.84439c-1.05614,-1.52026 -1.65965,-0.76014 -2.41405,2.73646z"/>
   <path fill="#d3d3d3" stroke="null" id="svg_102" d="m145.07921,232.18769c-4.52632,5.01685 -4.52632,5.01685 -0.90526,5.01685c1.9614,0 3.92281,1.06417 4.37545,2.28038c0.90526,2.12837 1.20702,2.12837 2.71579,0.15203c0.90526,-1.21621 3.01754,-2.43241 4.67719,-2.73647c2.71579,-0.45608 2.56492,-0.91215 -1.65965,-5.01685l-4.67719,-4.56078l-4.52633,4.86484z"/>
   <path fill="#d3d3d3" stroke="null" id="svg_103" d="m126.3704,242.52544c-5.73335,3.04052 -8.29827,10.18574 -7.69476,21.1316c0.30176,4.71279 -0.75438,4.71279 16.14389,0c12.37196,-3.34458 12.97547,-4.1047 12.52283,-14.13841l-0.45262,-8.51345l-8.29827,-0.30405c-4.97895,-0.30406 -9.80704,0.45608 -12.22107,1.82431z"/>
   <path fill="#d3d3d3" stroke="null" id="svg_104" d="m151.56694,245.2619c-0.45263,2.73647 -0.45263,7.29725 0,9.88169c0.90527,4.56078 1.81053,5.01685 13.4281,8.66546c6.94037,2.12837 13.27721,3.80065 14.18248,3.80065c2.86667,0 1.96141,-13.98638 -1.35789,-19.45931c-3.62106,-5.92901 -8.14738,-7.90535 -18.10531,-7.90535c-6.94037,0 -7.24212,0.15203 -8.14738,5.01685z"/>
   <path fill="#d3d3d3" stroke="null" id="svg_105" d="m116.41248,247.39027c-2.26316,0.76014 -2.56492,3.49659 -0.60351,3.49659c0.7544,0 1.65965,-1.06418 2.26316,-2.28038c0.45263,-1.21621 0.60351,-2.28039 0.45263,-2.12837c-0.15087,0 -1.20702,0.45608 -2.11229,0.91215z"/>
   <path fill="#d3d3d3" stroke="null" id="svg_106" d="m180.83717,247.69433c0,0.76012 0.7544,1.97634 1.50878,2.43241c0.90527,0.45608 1.50878,0.30405 1.50878,-0.60811c0,-0.76014 -0.60351,-1.97634 -1.50878,-2.43241c-0.75438,-0.45608 -1.50878,-0.30406 -1.50878,0.60811z"/>
   <path fill="#d3d3d3" stroke="null" id="svg_107" d="m38.55969,258.48816c-0.45262,1.21621 -1.20702,6.38508 -1.65965,11.40194c-0.45262,6.08104 -2.26316,12.01004 -5.43159,17.93905c-4.37545,7.90534 -5.12983,11.55397 -8.29826,38.7666c-5.43159,45.75977 -5.88422,51.99282 -4.07369,51.99282c3.62105,0 12.22107,-9.57762 17.35091,-19.30728c8.29826,-16.11474 11.61756,-29.03694 11.61756,-45.3037c0,-17.635 -7.393,-61.11439 -9.50529,-55.48943z"/>
   <path fill="#d3d3d3" stroke="null" id="svg_108" d="m257.18119,267.60971c-9.65616,42.87128 -8.44913,64.763 5.28072,91.2155c2.26316,4.56078 5.43159,9.88168 6.94037,11.55397c3.16843,3.80064 10.86318,8.96952 11.76844,7.90534c0.30176,-0.30405 -1.35789,-18.39512 -3.77193,-39.9828c-4.22457,-37.39835 -4.82808,-39.9828 -9.80705,-50.62461c-3.16842,-6.84116 -5.2807,-13.83435 -5.43159,-17.63499c-0.15087,-3.34456 -0.60351,-7.90534 -1.20702,-10.03371c-0.90527,-3.19255 -1.65965,-1.82431 -3.77194,7.60129z"/>
   <path fill="#d3d3d3" stroke="null" id="svg_109" d="m89.85804,264.41716c3.62106,9.12155 9.3544,13.98638 17.20004,14.29042c6.48773,0.30406 6.63861,0.15203 6.33686,-4.10469c-0.60351,-7.75332 -1.3579,-8.51345 -9.35441,-8.51345c-5.73334,0 -8.44913,-0.91215 -12.0702,-3.80065l-4.52632,-3.95267l2.41403,6.08104z"/>
   <path fill="#d3d3d3" stroke="null" id="svg_110" d="m147.795,260.61652c-1.35789,1.52026 -1.35789,2.43241 -0.15087,3.19253c2.41403,1.52026 4.67721,-1.06418 3.16843,-3.49659c-0.90527,-1.52026 -1.50878,-1.52026 -3.01756,0.30406z"/>
   <path fill="#d3d3d3" stroke="null" id="svg_111" d="m205.73196,263.20096c-2.71579,1.82431 -7.24212,2.88849 -11.46669,2.88849c-6.63861,0 -7.09124,0.30405 -7.99651,4.71279c-1.50878,7.90534 -1.20702,8.96952 2.86668,8.96952c4.82807,0 12.97545,-3.34456 15.3895,-6.38508c1.81053,-2.12837 6.94037,-13.5303 6.18597,-13.22624c-0.30175,0 -2.41403,1.36823 -4.97895,3.04052z"/>
   <path fill="#d3d3d3" stroke="null" id="svg_112" d="m114.14932,262.2888c-0.60351,0.60811 -0.45263,2.73647 0.45263,4.86484c0.75438,1.97634 1.35789,6.38508 1.35789,9.72965c0,3.34456 0.90527,8.05737 2.11229,10.33775c1.20703,2.28039 2.26316,7.75332 2.11229,12.16207c0,4.40875 0.45263,8.36142 0.90527,8.81749c0.45263,0.60811 0.90527,-1.06418 0.90527,-3.49659c0,-2.43241 0.90526,-6.08102 1.9614,-8.05736c1.65965,-3.34458 1.3579,-4.25673 -1.50878,-7.29725c-3.77194,-3.64862 -4.97895,-14.59448 -1.81053,-16.41879c0.90527,-0.76012 0.45263,-1.82431 -1.50878,-3.19255c-1.65965,-1.2162 -3.16843,-3.64861 -3.47018,-5.3209c-0.30176,-1.82431 -0.90527,-2.73646 -1.50878,-2.12837z"/>
   <path fill="#d3d3d3" stroke="null" id="svg_113" d="m183.85473,263.50501c0,1.36823 -1.20702,3.80064 -2.86668,5.47293c-1.9614,1.97634 -2.41403,3.49659 -1.35789,5.3209c1.96141,3.49659 0.15087,12.61815 -3.01756,15.8107c-2.41403,2.43241 -2.41403,3.04052 0,9.4256l2.56492,6.84116l0,-8.05737c0.15087,-4.40875 1.20702,-10.03371 2.41405,-12.61815c1.35789,-2.43241 1.9614,-5.16887 1.50876,-6.08102c-0.60351,-0.76014 -0.15087,-4.86484 0.7544,-9.12155c1.05614,-4.25673 1.35789,-8.05737 0.90526,-8.51345c-0.45262,-0.60811 -0.90526,0.15203 -0.90526,1.52026z"/>
   <path fill="#d3d3d3" stroke="null" id="svg_114" d="m129.99146,269.89009c-7.39299,3.34456 -7.9965,4.1047 -7.9965,8.96952c0,10.94586 1.50876,11.70599 15.84213,7.14522l9.05265,-2.88849l0.45262,-8.51345l0.45263,-8.51345l-4.97895,0c-2.71579,0 -8.60002,1.67228 -12.82459,3.80064z"/>
   <path fill="#d3d3d3" stroke="null" id="svg_115" d="m151.26519,270.04212c-0.60352,2.12837 -0.30176,6.08104 0.45262,8.66546c1.20703,4.40876 2.26317,5.16888 11.61757,7.90535c10.1088,2.88849 10.25967,2.88849 12.37196,0c2.86667,-3.95267 2.56491,-10.48978 -0.60351,-13.37828c-3.92282,-3.64861 -13.12635,-7.14521 -18.25618,-7.14521c-3.62106,0 -4.82808,0.76012 -5.58246,3.95267z"/>
   <path fill="#d3d3d3" stroke="null" id="svg_116" d="m93.93174,280.37987c4.97895,11.09789 6.48773,13.07422 12.52283,15.65867c7.84562,3.19253 11.01405,2.58444 11.01405,-2.28039c0,-4.25672 -4.82808,-13.07422 -6.33686,-11.55397c-1.81053,1.82432 -13.72985,-2.88849 -17.35091,-6.68913l-3.77194,-4.1047l3.92282,8.96952z"/>
   <path fill="#d3d3d3" stroke="null" id="svg_117" d="m232.58816,277.03531c1.20702,3.04052 5.43159,9.27357 9.20353,13.98638l6.78948,8.51345l0.90527,-5.77699c0.60351,-3.04052 1.50878,-8.51345 2.11229,-12.01004l1.20702,-6.38508l-3.77194,2.88849c-5.12983,4.1047 -6.78948,3.80065 -13.27721,-1.82431l-5.43159,-4.86482l2.26316,5.47293z"/>
   <path fill="#d3d3d3" stroke="null" id="svg_118" d="m62.7001,277.49139c-5.12983,4.71279 -8.44914,4.71279 -12.97547,0.60811l-3.3193,-3.19255l0.90527,5.16888c0.45262,2.73646 1.35789,8.36142 1.9614,12.31409l1.05614,7.44926l7.69475,-9.72965c4.22457,-5.16888 7.99651,-11.09789 8.44914,-13.07422c0.45263,-1.82432 0.75438,-3.34458 0.75438,-3.34458c-0.15087,0 -2.26316,1.82432 -4.52632,3.80065z"/>
   <path fill="#d3d3d3" stroke="null" id="svg_119" d="m203.01617,277.64342c-2.26316,1.97634 -6.0351,3.80064 -8.29826,3.95267c-2.26316,0 -4.97895,0.30405 -5.88422,0.30405c-2.71579,0.30405 -5.88422,5.3209 -7.24212,11.09789c-0.90527,4.71279 -0.7544,5.01685 2.86667,5.01685c7.84562,0 14.03161,-4.56078 19.01056,-13.98638c2.71579,-5.01685 4.52632,-9.27358 4.22457,-9.57763c-0.15087,-0.30405 -2.41405,1.21621 -4.67721,3.19255z"/>
   <path fill="#d3d3d3" stroke="null" id="svg_120" d="m145.38097,285.8528c-2.26316,0.91215 -2.41405,1.36823 -0.60351,1.36823c1.35789,0.15203 3.16842,1.67229 4.07369,3.49659c1.20702,2.73647 1.65965,2.8885 1.65965,0.91217c0.15087,-1.36824 1.3579,-3.34458 2.86667,-4.1047c1.3579,-0.91215 1.81054,-1.67229 0.7544,-1.67229c-0.90527,0 -2.56492,-0.30405 -3.77194,-0.60811c-1.05614,-0.45608 -3.3193,-0.15202 -4.97895,0.60811z"/>
   <path fill="#d3d3d3" stroke="null" id="svg_121" d="m56.81587,295.58246c-5.43159,7.75331 -5.73334,8.96952 -5.73334,19.61132c0,7.14522 -1.05614,15.05056 -3.01756,21.1316c-1.65965,5.16888 -3.01756,9.88168 -3.01756,10.33775c0,0.45608 2.86668,-5.01685 6.18598,-12.16206c6.48773,-13.83436 12.37196,-35.42202 11.61756,-42.71927c-0.45263,-4.25672 -0.60351,-4.25672 -6.0351,3.80065z"/>
   <path fill="#d3d3d3" stroke="null" id="svg_122" d="m93.93174,295.73448c1.20702,11.55397 3.92281,16.26677 15.69126,27.21263l9.3544,8.96952l0,-12.01004c0,-17.17892 -0.45263,-17.93905 -9.20353,-20.21944c-5.28072,-1.36823 -8.75089,-3.49659 -12.0702,-7.44926l-4.67721,-5.62495l0.90527,9.12154z"/>
   <path fill="#d3d3d3" stroke="null" id="svg_123" d="m236.05834,294.51828c1.96141,13.68232 6.48773,29.03694 11.16494,38.00646c2.56492,4.86482 4.37545,7.60128 3.92281,6.08102c-2.11229,-7.14521 -3.92281,-22.80387 -3.01756,-27.97275c0.7544,-5.01684 0,-6.84116 -5.43159,-14.59447c-3.47018,-4.71281 -6.48773,-8.66548 -6.94035,-8.66548c-0.45263,0 -0.30176,3.19255 0.30175,7.14522z"/>
   <path fill="#d3d3d3" stroke="null" id="svg_124" d="m201.20564,292.69396c-1.81054,2.43242 -6.33686,5.16888 -11.31581,6.84117c-7.69475,2.58444 -8.29826,3.19253 -9.3544,8.66546c-0.60351,3.19255 -1.05614,10.18574 -1.05614,15.65867l-0.15089,9.72966l11.16494,-11.09789c11.76845,-11.85802 15.23863,-18.69918 14.18248,-28.88491l-0.45263,-5.01685l-3.01754,4.10469z"/>
   <path fill="#d3d3d3" stroke="null" id="svg_125" d="m128.78444,294.21422c-2.86667,2.73647 -3.77194,5.32091 -3.77194,10.64181c0,3.80064 0.30176,6.84116 0.7544,6.84116c0.30175,0 5.12983,-1.52026 10.41054,-3.19253c8.44913,-2.88849 9.95791,-3.80065 10.71231,-7.60129c1.81053,-7.90534 -0.15089,-10.48978 -7.69476,-10.48978c-5.12983,0 -7.69475,0.91215 -10.41054,3.80064z"/>
   <path fill="#d3d3d3" stroke="null" id="svg_126" d="m152.47221,297.5588l0.45263,7.14521l9.80704,3.34458c5.28072,1.97634 10.25967,3.04052 10.86318,2.73646c1.81053,-1.06418 1.50878,-8.96952 -0.45263,-13.22624c-2.11229,-4.71281 -7.24212,-7.14522 -15.08775,-7.14522l-6.0351,0l0.45263,7.14522z"/>
   <path fill="#d3d3d3" stroke="null" id="svg_127" d="m147.94588,305.61617c-1.05613,1.67228 -3.3193,3.04051 -5.2807,3.19253c-2.56492,0 -2.11229,0.45608 1.9614,1.82431c3.77194,1.36824 6.48773,1.52026 9.50529,0.45609c3.62106,-1.36824 3.77194,-1.67229 1.20702,-2.73647c-1.65965,-0.60811 -3.47018,-2.12837 -4.22457,-3.34456c-1.05614,-1.97634 -1.50876,-1.97634 -3.16843,0.60811z"/>
   <path fill="#d3d3d3" stroke="null" id="svg_128" d="m176.6126,309.72086c-0.15087,1.97634 -1.05614,3.49659 -2.11227,3.49659c-1.3579,0 -1.3579,0.45608 0,1.82432c1.20702,1.2162 1.81053,7.90534 1.81053,20.37146c0,16.72284 -0.60351,20.52349 -5.28072,36.94228c-7.99651,27.97275 -12.97547,36.63822 -21.12285,36.63822c-5.12983,0 -9.3544,-3.64861 -13.27721,-11.55395c-4.0737,-7.90535 -13.12635,-40.74293 -13.27723,-47.88814c-0.15087,-4.40876 -0.75438,-2.28039 -1.65965,6.23305c-1.65965,16.57082 -0.60351,26.30047 3.47018,32.3815c21.27374,31.01327 25.4983,34.50987 31.08077,25.54034c1.50878,-2.43241 6.48773,-9.88168 11.16493,-16.41879c4.67721,-6.53711 9.05265,-13.98638 9.95792,-16.41879c0.75438,-2.73647 1.05614,-18.39512 0.45263,-39.52672c-0.60351,-19.30728 -1.05614,-33.44568 -1.20703,-31.62138z"/>
   <path fill="#d3d3d3" stroke="null" id="svg_129" d="m121.99496,317.77823c0,4.40875 0.30175,7.75332 0.60351,7.44926c1.20702,-1.2162 1.50876,-13.37827 0.45262,-14.44245c-0.60351,-0.60811 -1.05613,2.58444 -1.05613,6.99319z"/>
   <path fill="#d3d3d3" stroke="null" id="svg_130" d="m94.08261,322.18698c-1.20702,13.5303 1.3579,21.43564 13.12634,39.37469l9.50529,14.59448l1.05614,-6.84116c0.45263,-3.64862 1.05614,-12.92219 1.05614,-20.52349l0.15087,-13.83435l-11.91932,-11.40194l-11.91932,-11.24992l-1.05614,9.88168z"/>
   <path fill="#d3d3d3" stroke="null" id="svg_131" d="m131.0476,314.28163c-4.97895,1.82432 -6.0351,5.62496 -6.0351,20.37146c0,22.04375 10.86318,62.3306 19.01056,69.93188l3.62106,3.34458l0,-47.28004l0,-47.43206l-7.09124,0.15203c-4.0737,0 -8.29827,0.45608 -9.50529,0.91215z"/>
   <path fill="#d3d3d3" stroke="null" id="svg_132" d="m151.8687,314.1296c-0.7544,0.60811 -1.20703,21.89173 -1.20703,47.28004l0,46.21585l3.16843,-1.82431c3.92282,-2.12837 7.24213,-9.57763 14.1825,-32.53353c4.97895,-16.26676 5.58246,-20.21943 5.73334,-36.79025c0.15087,-12.16207 -0.30175,-19.15526 -1.35789,-20.21944c-2.11229,-2.12837 -19.01058,-3.80064 -20.51934,-2.12837z"/>
   <path fill="#d3d3d3" stroke="null" id="svg_133" d="m190.7951,325.22749l-11.91932,12.16207l1.20702,14.89853c0.75438,8.2094 1.35789,17.17892 1.35789,19.76335c0.15089,2.73647 0.30176,5.01685 0.30176,5.01685c1.05614,0 19.4632,-30.25314 21.12285,-34.50985c2.11229,-6.23307 2.71579,-24.32414 0.90527,-27.36466c-0.7544,-1.36823 -4.82808,1.82432 -12.97547,10.03371z"/>
   <path fill="#d3d3d3" stroke="null" id="svg_134" d="m91.81945,340.88616c0,1.2162 -2.26316,7.44926 -5.12984,13.5303c-7.9965,17.78702 -11.61756,34.35784 -12.37196,56.09752l-0.75438,19.00323l3.92281,-8.96952c2.11229,-5.01685 3.77194,-9.72965 3.77194,-10.6418c0,-3.34458 9.05265,-20.82755 14.93688,-28.88492c7.99651,-10.79383 8.14738,-16.41879 0.90527,-31.46934c-2.86668,-6.23307 -5.28072,-10.03371 -5.28072,-8.66548z"/>
   <path fill="#d3d3d3" stroke="null" id="svg_135" d="m202.86529,348.33542c-2.41405,4.56078 -4.97895,11.55397 -5.58246,15.65867c-1.20703,7.14521 -1.05614,7.75331 5.2807,16.72284c7.99651,11.40194 13.27723,21.89172 16.59653,32.83758c5.12983,17.33095 6.48773,17.17892 6.0351,-1.06418c-0.75438,-22.80387 -5.28072,-43.17533 -13.12634,-58.98601c-1.65965,-3.34458 -3.47019,-7.75332 -3.92281,-9.72966c-0.90527,-3.19255 -1.3579,-2.88849 -5.28072,4.56078z"/>
   <path fill="#d3d3d3" stroke="null" id="svg_136" d="m35.39127,366.27447c-2.71579,5.01685 -14.03161,15.35461 -17.04916,15.35461c-1.9614,0 -8.90177,13.83436 -12.52283,25.08427c-1.65965,5.01685 -1.50878,6.23307 2.86667,14.89853c5.12984,10.79384 12.82459,20.67552 14.63512,18.8512c0.60351,-0.60809 -0.60351,-4.86482 -2.86667,-9.57762c-2.26316,-4.56078 -4.07369,-9.72966 -4.07369,-11.40195c0,-3.95267 10.10878,-14.59447 12.0702,-12.61813c0.75438,0.76012 1.50878,4.71279 1.81053,8.96952c0.30176,5.47293 1.05614,7.60129 2.71579,7.60129c1.65965,0 2.56492,-2.73647 3.62106,-10.48978c1.20702,-9.27358 0.90527,-11.24992 -1.96141,-17.17892c-4.07369,-8.66548 -4.07369,-15.20259 0.45263,-25.54034c3.92281,-8.81749 4.0737,-11.40194 0.30176,-3.95267z"/>
   <path fill="#d3d3d3" stroke="null" id="svg_137" d="m264.87594,372.35551c4.0737,10.64181 3.92282,15.35461 -1.05614,25.38831c-3.16842,6.08104 -3.01754,14.29042 0.15089,23.10793c1.81053,4.56078 4.37545,2.88849 4.37545,-2.73647c0,-2.43241 0.75438,-6.23305 1.50878,-8.51345l1.65965,-4.1047l5.88422,5.77699c3.3193,3.34456 6.0351,6.84116 6.0351,7.90534c0,1.21621 -1.96141,6.08104 -4.52633,11.09789c-5.2807,10.33775 -5.2807,10.64181 -2.26316,10.64181c4.0737,0 17.35091,-22.49982 17.35091,-29.64504c0,-2.12837 -2.41403,-9.72966 -5.43159,-16.72285c-4.22457,-9.57762 -6.33686,-12.92219 -9.05265,-13.5303c-3.77194,-1.06417 -12.0702,-8.51343 -15.99301,-14.59447c-1.50878,-2.28039 -0.90527,0.15202 1.35789,5.92901z"/>
   <path fill="#d3d3d3" stroke="null" id="svg_138" d="m106.90721,368.25081c0.75438,1.97634 4.82808,16.11474 9.05264,31.62138c4.37545,15.50664 11.4667,39.07063 15.84215,52.44891l8.14738,24.32413l0,-13.22625c0.15087,-22.04374 -5.28072,-41.35102 -20.51934,-72.3643c-7.09124,-14.29042 -13.12634,-26.14844 -13.4281,-26.14844c-0.30176,0 0.15087,1.52026 0.90527,3.34456z"/>
   <path fill="#d3d3d3" stroke="null" id="svg_139" d="m187.62667,375.09197c-2.41405,5.77699 -6.18598,13.37828 -8.44914,17.17892c-6.63861,10.79383 -12.82459,27.0606 -15.69126,40.28684c-1.50878,6.68914 -3.3193,13.37827 -4.07369,14.89853c-0.7544,1.52026 -0.90527,8.05737 -0.30176,14.89854l1.05614,12.01004l6.63861,-20.21944c7.393,-21.58767 26.40356,-87.87093 25.4983,-88.78309c-0.15087,-0.30406 -2.41403,4.1047 -4.67719,9.72965z"/>
   <path fill="#d3d3d3" stroke="null" id="svg_140" d="m95.74227,385.73378c-4.07369,6.53711 -9.3544,17.48297 -12.52283,26.90857l-5.28072,15.81068l7.84564,41.50305c4.37545,22.9559 8.75089,43.78345 9.80704,46.51991c2.56492,6.23307 7.39299,7.75332 12.6737,3.95267c4.37545,-3.49659 9.20353,-16.57082 13.27723,-36.18214c2.41403,-12.01004 2.41403,-13.22625 -0.15089,-24.62819c-1.50876,-6.53711 -4.67719,-17.635 -6.94035,-24.78021c-3.62106,-11.40194 -5.28072,-20.37147 -10.25967,-52.44891l-1.20703,-7.60129l-7.24212,10.94586z"/>
   <path fill="#d3d3d3" stroke="null" id="svg_141" d="m195.32142,380.41288c-4.97895,32.22947 -7.24212,44.39154 -9.20353,50.0165c-1.3579,3.64861 -4.37545,14.7465 -6.94037,24.62818l-4.37545,17.78703l4.52632,18.24309c5.12984,20.67552 7.54388,26.30047 12.82459,29.79706c9.20353,6.08104 11.46669,0.60811 21.12285,-49.71244l8.29826,-43.32736l-5.43159,-15.20259c-4.97895,-13.98638 -10.71229,-25.38831 -17.35091,-33.74973l-2.71579,-3.49659l-0.75438,5.01685z"/>
   <path fill="#d3d3d3" stroke="null" id="svg_142" d="m186.26876,398.808c-3.16843,11.85801 -9.3544,32.53353 -13.72985,46.06383c-12.97547,39.67874 -13.4281,42.11115 -9.05265,59.89818l1.96141,8.36142l0.15087,-6.53711c0.15087,-7.14522 11.61757,-56.09754 17.35091,-74.79671c3.16843,-10.03371 10.86318,-52.90499 9.65616,-53.96917c-0.30176,-0.30406 -3.01756,9.27357 -6.33686,20.97957z"/>
   <path fill="#d3d3d3" stroke="null" id="svg_143" d="m107.81246,386.18985c1.81054,17.33094 5.43159,36.18215 9.80704,50.16853c2.41405,7.90534 7.393,27.82072 11.01407,44.08748l6.48773,29.64504l1.9614,-11.24992c2.26317,-13.68232 1.50878,-17.48297 -9.80704,-52.29688c-4.37545,-13.5303 -10.86318,-34.50987 -14.18248,-46.67192c-4.67721,-16.41879 -6.0351,-19.91538 -5.28072,-13.68233z"/>
   <path fill="#d3d3d3" stroke="null" id="svg_144" d="m120.33529,387.71011c7.84564,13.5303 13.88073,27.51668 16.29478,38.00646c4.07369,17.78702 4.52632,17.93905 5.12983,1.52026l0.30176,-11.40194l-12.37196,-17.48297c-14.63512,-20.37146 -15.99302,-21.89172 -9.35441,-10.64181z"/>
   <path fill="#d3d3d3" stroke="null" id="svg_145" d="m174.95295,391.05468c-3.62105,5.32091 -9.3544,13.07422 -12.52283,17.48297l-5.88422,7.90535l1.05614,12.31409l1.05614,12.46612l3.47019,-13.98638c2.26316,-8.96952 6.48773,-19.61134 11.76844,-29.79706c4.67721,-8.66548 8.14738,-15.8107 7.99651,-15.8107c-0.30175,0 -3.47018,4.25673 -6.94037,9.4256z"/>
   <path fill="#d3d3d3" stroke="null" id="svg_146" d="m74.16678,464.48316c0.60351,31.46935 1.05614,34.81393 6.0351,57.00969c2.86668,12.92219 5.73335,26.14845 6.33686,29.34098c0.75438,4.86484 1.20702,5.47293 3.62106,4.1047c6.48773,-3.49659 8.14738,-20.97957 3.3193,-35.8781c-1.50878,-5.01685 -3.16843,-11.09789 -3.62106,-13.5303c-0.45263,-2.58444 -3.77194,-19.61134 -7.24212,-38.00646c-3.47019,-18.39512 -6.94037,-34.20581 -7.69475,-34.96594c-1.05614,-1.06418 -1.20703,10.18574 -0.7544,31.92542z"/>
   <path fill="#d3d3d3" stroke="null" id="svg_147" d="m221.72498,440.6151c-0.90527,4.71281 -4.52633,23.41198 -7.84564,41.35102c-3.47018,17.93905 -7.24212,34.6619 -8.44913,37.09431c-1.65965,3.19255 -2.11229,7.90534 -1.65965,17.78702c0.30175,11.40194 0.90526,13.98638 3.77194,16.87488c1.81053,1.82431 3.62105,3.04051 3.77193,2.58443c0.30176,-0.30405 2.41405,-10.18572 4.82808,-21.89172c2.41405,-11.70598 5.28072,-25.38831 6.48773,-30.40517c2.56492,-11.55397 4.52633,-69.77985 2.41405,-71.14808c-0.90527,-0.60811 -2.26316,2.58443 -3.3193,7.75331z"/>
   <path fill="#d3d3d3" stroke="null" id="svg_148" d="m123.65461,487.28704c-1.05614,5.01685 -3.47019,13.98638 -5.43159,19.76335c-3.77194,11.40194 -6.33686,32.98961 -4.67721,39.52672c0.90527,3.64862 1.65965,3.95267 7.393,3.49659l6.33685,-0.45608l1.96141,-9.12155c2.71579,-12.77016 2.26316,-37.24632 -0.90527,-50.92865l-2.71579,-11.40194l-1.9614,9.12155z"/>
   <path fill="#d3d3d3" stroke="null" id="svg_149" d="m171.3319,489.56742c-1.3579,6.23307 -2.86668,15.35461 -3.3193,20.21944c-1.05614,9.72965 1.81053,35.57404 4.22456,38.76658c0.90527,1.2162 3.77194,1.82431 6.94037,1.52026l5.43159,-0.45608l0,-15.96271c-0.15087,-12.3141 -0.90526,-18.24311 -3.47018,-25.84439c-1.81054,-5.47294 -4.22457,-14.29044 -5.28072,-19.76337l-2.11229,-9.88168l-2.41403,11.40194z"/>
   <path fill="#d3d3d3" stroke="null" id="svg_150" d="m108.71773,523.31715c-0.90527,0.91217 -3.62106,1.67229 -5.88422,1.52026l-4.22457,-0.15202l0,11.85801c-0.15087,12.61815 -2.86667,19.61134 -8.44913,20.97957c-1.50878,0.45608 -2.86668,0.91215 -2.86668,1.2162c0,0.15203 2.41405,5.47294 5.28072,11.85802c6.18598,13.5303 13.12634,39.37469 16.59653,61.87451c3.16843,21.43564 4.82808,68.10757 2.41403,72.51633c-1.65965,3.19253 -1.9614,3.19253 -8.90177,1.2162c-10.56143,-3.34456 -13.4281,-2.88849 -14.48424,1.67229c-2.71579,10.94586 -10.56142,23.56401 -20.51934,33.44568c-5.73334,5.77698 -10.56142,11.40194 -10.56142,12.46612c0,1.06418 2.26316,3.19253 4.97895,4.86482c3.92281,2.43241 7.393,3.04052 18.40705,2.88849c19.4632,-0.15202 20.67021,-0.76012 23.83864,-10.48978c6.78948,-20.21943 7.09124,-20.97957 11.61756,-22.80387c2.41405,-0.91215 5.43159,-3.04052 6.78949,-4.56078c2.26316,-2.58444 2.26316,-3.49659 -0.60351,-12.92219c-1.81054,-5.62496 -3.16843,-14.13841 -3.16843,-19.00323c0,-4.71281 -0.60351,-12.01004 -1.3579,-16.11474c-0.75438,-4.10469 -1.65965,-28.2768 -1.81053,-53.81714c-0.45263,-42.41521 -0.30175,-46.82395 2.26316,-51.68878c1.50878,-2.8885 3.92282,-6.68914 5.43159,-8.36143c1.3579,-1.67228 3.01756,-4.56076 3.3193,-6.23305c0.7544,-3.04052 0.30176,-3.19255 -5.43159,-2.58444c-9.3544,1.06418 -10.86318,-1.52026 -10.41054,-18.09108c0.30176,-7.29724 0.15087,-13.37827 0,-13.37827c-0.30175,0 -1.20702,0.76014 -2.26316,1.82431z"/>
   <path fill="#d3d3d3" stroke="null" id="svg_151" d="m188.0793,534.87112c0.75438,16.11474 -1.05614,19.15526 -10.56143,18.24311c-6.94037,-0.60811 -7.24212,0.76012 -1.35789,8.81749c2.26316,3.19255 4.97895,8.36142 5.88421,11.24992c2.11229,6.99319 2.26317,83.91825 0.15089,97.1445c-0.90527,5.47293 -2.11229,16.57082 -2.71579,24.47616c-0.60351,7.90534 -1.96141,15.96271 -3.01756,17.93905c-3.16843,5.92901 -1.50878,11.40194 4.22457,14.29042c7.24212,3.64862 7.54388,4.1047 12.0702,18.24311c5.12984,15.50664 6.33686,16.41879 25.80006,16.41879c11.61756,0 15.23863,-0.60811 19.31232,-3.04052c2.56491,-1.67229 4.82807,-3.80064 4.82807,-4.86482c0,-1.06418 -4.37545,-5.92901 -9.80704,-10.79384c-7.84562,-7.14521 -11.01405,-11.24991 -15.69126,-21.28361c-3.16842,-6.84116 -6.18597,-13.68233 -6.63861,-15.20259c-1.20702,-3.19253 -5.43159,-3.34456 -15.08775,-0.30405c-6.48773,1.97634 -7.39299,1.97634 -8.14738,-0.15203c-0.45263,-1.36823 -0.45263,-15.81068 0,-32.22947c1.20702,-48.04017 9.65616,-86.65472 24.74391,-114.47546c0.30175,-0.60811 -1.05614,-1.36823 -3.01756,-1.97634c-5.43159,-1.36823 -8.60002,-9.27357 -8.60002,-22.04375l0,-10.79383l-4.37545,0c-2.56491,0 -4.97895,-0.76012 -5.43159,-1.52026c-2.26316,-3.80064 -3.01754,-0.60811 -2.56491,11.85801z"/>
   <path fill="#d3d3d3" stroke="null" id="svg_152" d="m122.90021,565.88439c-1.05614,1.97634 -2.86667,6.23307 -3.92281,9.4256c-3.47018,10.64181 0.15087,43.47939 6.33686,59.29009c1.81053,4.40875 1.81053,4.40875 4.52632,-6.08104c4.97895,-19.61134 4.97895,-26.90857 -0.15087,-46.06383c-2.41405,-9.57763 -4.22457,-18.09108 -3.77194,-18.69918c0.45263,-0.60809 0.45263,-1.2162 0,-1.2162c-0.45263,0 -1.81054,1.52026 -3.01756,3.34456z"/>
   <path fill="#d3d3d3" stroke="null" id="svg_153" d="m172.84066,568.16478c-0.60351,3.19253 -2.26316,10.79383 -4.07369,17.02688c-4.22457,15.8107 -3.77194,27.51668 1.65965,47.88815l1.81053,6.23305l2.11229,-6.08104c3.77194,-10.48978 6.63861,-28.2768 6.94037,-42.56722c0.15087,-11.09789 -0.45263,-15.05056 -3.01756,-20.97957c-1.81053,-3.95268 -3.62105,-7.14522 -3.92281,-7.14522c-0.30175,0 -1.05614,2.58444 -1.50878,5.62496z"/>
   <path fill="#d3d3d3" stroke="null" id="svg_154" d="m206.63723,576.98228c-9.50529,26.45249 -15.08775,56.55361 -17.50179,94.56007c-1.05614,16.26676 0.30175,35.11796 2.26316,32.83758c2.11229,-2.12837 16.29477,-61.26642 17.95442,-74.18861c3.01754,-24.1721 4.67721,-51.84081 3.47018,-59.29007l-1.20702,-7.60129l-4.97895,13.68233z"/>
   <path fill="#d3d3d3" stroke="null" id="svg_155" d="m86.53874,570.74921c-1.35789,6.53711 0,29.64504 2.86667,55.03336c1.96141,17.48297 17.04916,79.66154 19.31232,79.66154c0.60351,0 1.20702,-9.72966 1.20702,-21.7397c0,-34.81391 -5.58246,-72.3643 -15.08775,-100.48908c-6.0351,-18.24309 -7.09124,-19.76335 -8.29826,-12.46612z"/>
   <path fill="#d3d3d3" stroke="null" id="svg_156" d="m82.91768,609.66783c-0.15087,17.02689 2.86668,49.25638 5.88422,61.57047c0.7544,3.34456 1.50878,11.24992 1.50878,17.635l0,11.55397l6.78949,1.52026c3.77194,0.91215 6.78948,1.2162 6.78948,0.76012c0,-0.45608 -3.3193,-13.83435 -7.54388,-29.79706c-6.94037,-27.0606 -8.60002,-36.63823 -11.91932,-68.56366l-1.20702,-12.16207l-0.30176,17.48297z"/>
   <path fill="#d3d3d3" stroke="null" id="svg_157" d="m215.23725,602.06654c-0.60351,3.80064 -1.96141,14.29042 -2.86668,23.25995c-0.90526,9.72966 -4.97895,29.34098 -9.50528,47.58409l-7.99651,31.01327l3.92281,-1.06418c2.11229,-0.60811 5.28072,-1.06418 6.94037,-1.21621c2.71579,0 3.01756,-1.06418 3.16843,-12.16206c0.15087,-6.68914 1.3579,-18.09108 2.56492,-25.2363c3.16843,-16.87487 5.88422,-50.0165 5.28072,-60.6583l-0.45263,-8.36143l-1.05614,6.84117z"/>
   <path fill="#d3d3d3" stroke="null" id="svg_158" d="m179.3284,624.71839c0,1.67229 -1.35789,6.53711 -3.01754,11.09789l-3.01756,8.05737l3.62106,12.92219l3.77194,12.92219l0,-24.02008c0.15087,-13.07422 -0.15087,-23.86805 -0.60351,-23.86805c-0.45263,0 -0.7544,1.36823 -0.7544,2.88849z"/>
   <path fill="#d3d3d3" stroke="null" id="svg_159" d="m118.22302,629.88727c-1.05614,4.1047 0.30175,39.22266 1.65965,40.43887c0.30175,0.30405 0.60351,-1.36823 0.60351,-3.80064c0,-2.43242 1.20702,-8.81751 2.71579,-14.29044c2.71579,-9.88168 2.71579,-9.88168 -0.60351,-18.24309c-3.16843,-7.90534 -3.47019,-8.05737 -4.37545,-4.1047z"/>
  </g>
 </g>
</svg>